<svg xmlns="http://www.w3.org/2000/svg" viewBox="0 0 533.5 544.3" width="48" height="48">
  <path fill="#4285F4" d="M533.5 278.4c0-17.4-1.6-34-4.7-50.2H272v95.1h146.9c-6.3 34.4-25 63.6-53.6 83v68h86.6c50.6-46.6 80.6-115.4 80.6-195.9z"/>
  <path fill="#34A853" d="M272 544.3c72.6 0 133.6-24 178.2-65.1l-86.6-68c-24 16.1-54.9 25.6-91.6 25.6-70.5 0-130.2-47.6-151.6-111.6h-89.9v69.9C81.9 477.9 169.8 544.3 272 544.3z"/>
  <path fill="#FBBC05" d="M120.4 323.1c-10.6-31.6-10.6-65.6 0-97.2v-69.9h-89.9C7.4 203.1 0 240.6 0 278.4s7.4 75.3 30.5 122.4l89.9-69.9z"/>
  <path fill="#EA4335" d="M272 108.6c38.8 0 73.6 13.4 101 39l75.6-75.6C405.1 24.7 344.1 0 272 0 169.8 0 81.9 66.4 30.5 164.9l89.9 69.9C141.8 156.2 201.5 108.6 272 108.6z"/>
</svg>
